<?xml version="1.0" standalone="no"?><!DOCTYPE svg PUBLIC "-//W3C//DTD SVG 1.1//EN" "http://www.w3.org/Graphics/SVG/1.1/DTD/svg11.dtd"><svg class="icon"  width="128" height="128" viewBox="0 0 1024 1024" version="1.1" xmlns="http://www.w3.org/2000/svg"><path fill="#BFCBD9" d="M816.458665 1020.789888c3.041266 0 6.180769-0.538259 9.347902-1.528819-9.057283 1.000793-18.255783 1.528819-27.579125 1.528819L816.458665 1020.789888zM769.659803 700.926884c-24.047696 0-43.554982 19.430538-43.554982 43.404556 0 23.975041 19.507286 43.404556 43.554982 43.404556 24.072255 0 43.579541-19.429515 43.579541-43.404556C813.239344 720.357422 793.733081 700.926884 769.659803 700.926884zM798.226418 577.375963c-108.821451 0-197.040678 87.844697-197.040678 196.241476s88.219227 196.290595 197.040678 196.290595c108.794845 0 197.013049-87.895863 197.013049-196.290595C995.240491 665.218614 907.022287 577.375963 798.226418 577.375963zM893.100206 888.989073c-6.005784 0-11.465123-2.430352-15.412015-6.351662l-63.830771-63.606667c-12.978593 7.644097-28.04166 12.087293-44.197618 12.087293-48.119951 0-87.13043-38.83754-87.13043-86.786599 0-47.923476 39.010479-86.785575 87.13043-86.785575s87.133499 38.862099 87.133499 86.785575c0 16.08228-4.467755 31.096229-12.134365 44.025703l63.851237 63.581084c3.921309 3.944845 6.379291 9.357112 6.379291 15.361873C914.890488 879.287107 905.13531 888.989073 893.100206 888.989073zM206.688921 181.1385c24.077372 0 50.836829-26.858718 50.836829-50.836829L257.52575 54.045917c0-23.978111-16.731056-50.836829-50.836829-50.836829-29.189809 0-50.836829 26.858718-50.836829 50.836829l0 76.255755C155.852092 154.279782 182.612573 181.1385 206.688921 181.1385zM435.453115 181.1385c41.206494 0 50.837852-26.858718 50.837852-50.836829L486.290967 54.045917c0-23.978111-14.199397-50.836829-50.837852-50.836829-35.991726 0-50.836829 26.858718-50.836829 50.836829l0 76.255755C384.616286 154.279782 402.314367 181.1385 435.453115 181.1385zM664.217309 181.1385c33.112142 0 50.836829-26.858718 50.836829-50.836829L715.054137 54.045917c0-23.978111-17.72264-50.836829-50.836829-50.836829-29.189809 0-50.837852 26.858718-50.837852 50.836829l0 76.255755C613.38048 154.279782 640.164496 181.1385 664.217309 181.1385zM816.726771 1019.936451c3.024893 0 6.151094-0.535189 9.302877-1.51961-9.015328 0.99363-18.167778 1.51961-27.447119 1.51961L816.726771 1019.936451zM551.646464 773.946944c0-135.828548 110.559025-245.942435 246.936065-245.942435 24.572652 0 48.299029 3.593851 70.701249 10.252505l-1.720178-382.536416c0-23.981181-26.758434-50.837852-50.836829-50.837852l-50.837852 0 0 50.837852c0 47.956222-53.54245 76.254731-101.671611 76.254731s-101.672634-28.297486-101.672634-76.254731l0-50.837852-25.418926 0 0 50.837852c0 47.956222-53.914934 76.254731-101.671611 76.254731-77.570703 0-101.671611-53.715389-101.671611-101.671611l0-25.419949L308.363601 104.883769l0 25.418926c-0.051165 48.202838-38.275745 101.275591-103.982236 101.275591-48.130184 0-99.364055-36.19127-99.364055-101.275591l0-25.418926-25.418926 0c-24.077372 0-50.837852 26.856671-50.837852 50.837852l0 806.331515c0 23.980157 26.758434 57.884338 50.837852 57.884338l718.983121 0C662.207535 1019.936451 551.646464 909.824611 551.646464 773.946944zM181.271018 384.483768c0 0 530.158568 2.333138 531.523659 0 24.599258-0.893346 53.095265 14.645558 53.095265 50.836829 0 34.205033-26.75741 50.836829-50.836829 50.836829L181.271018 486.157425c-24.078395 0-50.836829-12.559037-50.836829-50.836829C130.435213 402.853138 157.192623 384.483768 181.271018 384.483768zM410.035212 892.847961 181.271018 892.847961c-20.057825 0-50.836829-11.418051-50.836829-50.837852 0-29.835516 30.780027-53.568033 50.836829-53.568033l228.764194 2.731204c20.056801 0 50.837852 11.022031 50.837852 50.836829C460.873064 873.584222 430.092014 892.847961 410.035212 892.847961zM460.873064 689.500647 181.271018 689.500647c-24.078395 0-50.836829-15.884782-50.836829-50.835805 0-38.57455 26.75741-50.836829 50.836829-50.836829l279.601023 0c24.075325 0 50.835805 18.96391 50.835805 50.836829C511.707846 662.643975 484.948389 689.500647 460.873064 689.500647z" /></svg>
