<?xml version="1.0" standalone="no"?><!DOCTYPE svg PUBLIC "-//W3C//DTD SVG 1.1//EN" "http://www.w3.org/Graphics/SVG/1.1/DTD/svg11.dtd"><svg class="icon" width="260px" height="260.00px" viewBox="0 0 1024 1024" version="1.1" xmlns="http://www.w3.org/2000/svg"><path fill="#BFCBD9" d="M0 1006.016l0-102.016c0-9.856 8.064-17.984 17.984-17.984l988.032 0c9.856 0 17.984 8.128 17.984 17.984l0 102.016C1024 1015.872 1015.872 1024 1006.016 1024L17.984 1024C8.064 1024 0 1015.936 0 1006.016L0 1006.016zM89.984 339.84l204.032 0c9.92 0 17.984 8.064 17.984 17.984l0 459.712c0 9.92-8.064 17.984-17.984 17.984L89.984 835.52c-9.856 0-17.984-8.064-17.984-17.984L72 357.824C72 347.968 80.064 339.84 89.984 339.84L89.984 339.84zM409.984 193.088l204.032 0c9.856 0 17.984 8.128 17.984 17.984l0 606.464c0 9.92-8.128 17.984-17.984 17.984L409.984 835.52c-9.92 0-17.984-8.064-17.984-17.984L392 211.072C392 201.216 400.064 193.088 409.984 193.088L409.984 193.088zM729.984 0l204.032 0c9.856 0 17.984 8.128 17.984 17.984l0 799.552c0 9.92-8.128 17.984-17.984 17.984l-204.032 0c-9.856 0-17.984-8.064-17.984-17.984L712 17.984C712 8.064 720.128 0 729.984 0z" /></svg>