<?xml version="1.0" standalone="no"?><!DOCTYPE svg PUBLIC "-//W3C//DTD SVG 1.1//EN" "http://www.w3.org/Graphics/SVG/1.1/DTD/svg11.dtd"><svg class="icon" width="260px" height="260.00px" viewBox="0 0 1024 1024" version="1.1" xmlns="http://www.w3.org/2000/svg"><path fill="#BFCBD9" d="M181.532444 700.302222h660.536889c-35.555556-60.643556-194.844444-321.536-246.158222-401.123555l-8.533333-13.482667H436.906667l-8.533334 13.482667c-55.921778 86.584889-223.857778 364.088889-246.840889 401.123555z m830.236445 139.036445c34.190222 95.800889-3.413333 184.661333-112.526222 184.661333H124.586667C15.587556 1024-21.902222 935.936 12.117333 840.135111c0 0 134.314667-236.657778 353.28-576.398222v-196.835556h-13.482666C332.231111 67.128889 316.302222 51.996444 316.302222 33.564444c0.170667-18.488889 16.042667-33.450667 35.612445-33.507555l320.341333 0.056889c19.512889 0 35.328 15.018667 35.328 33.450666 0 18.488889-15.815111 33.393778-35.328 33.393778h-13.596444v196.721778c219.022222 339.797333 353.109333 575.715556 353.109333 575.715556zM534.186667 610.986667a52.679111 52.679111 0 0 0 27.534222 47.900444 59.164444 59.164444 0 0 0 57.685333 0 52.679111 52.679111 0 0 0 27.534222-47.900444c-1.137778-28.672-26.055111-51.256889-56.32-51.256889-30.378667 0-55.239111 22.584889-56.433777 51.2m-159.516445-28.842667c0 28.672 24.576 51.882667 54.897778 51.882667 30.378667 0 54.954667-23.210667 54.954667-51.882667s-24.576-51.939556-54.954667-51.939555c-30.321778 0-54.897778 23.267556-54.897778 51.939555m128.967111-91.420444c0 20.992 18.033778 38.001778 40.220445 38.001777 22.186667 0 40.220444-17.066667 40.220444-38.001777 0-21.048889-18.033778-38.058667-40.220444-38.058667-22.186667 0-40.220444 17.066667-40.220445 38.058667" /></svg>