<?xml version="1.0" standalone="no"?><!DOCTYPE svg PUBLIC "-//W3C//DTD SVG 1.1//EN" "http://www.w3.org/Graphics/SVG/1.1/DTD/svg11.dtd"><svg class="icon" width="260px" height="260.00px" viewBox="0 0 1024 1024" version="1.1" xmlns="http://www.w3.org/2000/svg"><path fill="#BFCBD9" d="M914.013091 817.570909H681.890909c-14.568727 0-28.997818-14.568727-28.997818-28.997818 0-14.522182 14.568727-28.951273 28.997818-28.951273h232.122182c14.568727 0 28.997818 14.522182 28.997818 28.951273 0.093091 14.568727-14.429091 28.997818-28.997818 28.997818m-115.991273-261.12c-123.345455 0-224.907636 101.562182-224.907636 232.122182s101.608727 232.168727 224.907636 232.168727c123.252364 0 224.814545-101.608727 224.814546-232.168727 0-130.56-101.562182-232.122182-224.814546-232.122182m-362.728727-43.52c137.821091 0 253.858909-116.037818 253.858909-253.858909C689.152 113.989818 573.114182 5.12 435.293091 5.12S181.434182 121.157818 181.434182 258.978909c-0.093091 137.821091 116.037818 253.952 253.858909 253.952m203.077818 58.042182c-28.997818-14.522182-65.349818-21.783273-101.608727-21.783273H326.469818C145.082182 549.189818 0 701.533091 0 890.181818v21.783273c0 72.517818 145.082182 79.778909 326.469818 79.778909h268.381091c-50.781091-50.781091-79.778909-116.130909-79.778909-188.602182 7.261091-101.608727 50.781091-181.387636 123.298909-232.168727" /></svg>