<?xml version="1.0" standalone="no"?><!DOCTYPE svg PUBLIC "-//W3C//DTD SVG 1.1//EN" "http://www.w3.org/Graphics/SVG/1.1/DTD/svg11.dtd"><svg class="icon" width="260px" height="260.00px" viewBox="0 0 1024 1024" version="1.1" xmlns="http://www.w3.org/2000/svg"><path fill="#BFCBD9" d="M162.629708 1023.748483a55.504583 55.504583 0 0 1-55.429203-59.776099 1771.146458 1771.146458 0 0 1 53.092432-329.534903c6.482654-20.930429 53.067306-37.915987 97.491074-51.810978l-14.070877 72.213749a30.930802 30.930802 0 0 0-0.552784 7.035438 33.569091 33.569091 0 0 0 33.770103 33.041434h16.432774l-4.874554 8.492779a15.980496 15.980496 0 0 1-1.080442 1.809112 34.172129 34.172129 0 0 0 12.990434 46.23288 999.007108 999.007108 0 0 0 97.5162 48.393765 948.050434 948.050434 0 0 0 96.963415 35.579216v138.8494h33.94599v-138.673514a959.834793 959.834793 0 0 0 96.963415-35.579216 1019.686271 1019.686271 0 0 0 97.5162-48.393765l0.175886-0.175886a33.971116 33.971116 0 0 0 12.563283-46.23288l-5.77911-10.050626h14.096003a36.458646 36.458646 0 0 0 8.844551-0.552784 33.895737 33.895737 0 0 0 26.910551-39.7251l-14.096003-72.238875c44.247881 13.719105 90.832533 30.880549 97.315187 51.836104a1771.071079 1771.071079 0 0 1 53.092433 329.534903 55.278444 55.278444 0 0 1-55.278444 59.776099z m488.611188-130.658139h127.492192V859.345367H651.240896zM317.384223 721.852802l34.850546-60.856542-74.751531 0.175886 17.33733-89.02342c7.035438-1.809113 14.271889-3.794111 21.131441-5.427338 34.850546-8.668665 67.163309-15.528217 85.229309-20.578657a116.210364 116.210364 0 0 0 4.522782 20.101252c16.256888 52.916546 68.62065 105.079296 106.712523 139.929842 38.267759-35.026432 91.008419-87.390194 107.089421-140.482627a152.794643 152.794643 0 0 0 4.145883-19.6741c17.161444 4.874554 47.740474 11.206448 80.706528 19.322329 8.316893 2.160885 16.784546 4.145883 25.45321 6.50778l16.985559 89.199307-74.751532-0.175886 34.67466 60.856541a929.230636 929.230636 0 0 1-194.655501 83.068424 947.095624 947.095624 0 0 1-194.680628-82.942791z m-31.785105-206.414734C221.325364 393.021442 259.593123 205.778278 351.857871 114.945744q10.050626-10.050626 21.131441-19.146442l-4.874553-56.33376a16.834799 16.834799 0 0 1 14.096003-18.066l126.838901-21.106315a16.53328 16.53328 0 0 1 5.954996 0l126.386623 21.131441a16.759419 16.759419 0 0 1 15.075939 18.241887L651.79368 95.497783q10.050626 8.668665 21.131442 19.498214c92.440634 90.832533 130.658139 278.075698 66.811537 400.492324a996.821097 996.821097 0 0 1-154.930402-6.130882 269.608045 269.608045 0 0 0 66.635651-189.780947c0-1.256328 0-13.191447-0.175886-14.447775a127.240926 127.240926 0 0 1-103.647081-98.219744c-15.704103 61.032427-104.727524 126.386623-173.52406 129.828963a262.69824 262.69824 0 0 0 66.459765 172.619503 1032.701832 1032.701832 0 0 1-123.823713 7.336957 281.266771 281.266771 0 0 1-31.131815-1.256328z m117.542073-462.956965l10.050626 118.823527h198.072714l10.301891-118.823527-109.250305-18.241886z m99.300185 102.189741a7.53797 7.53797 0 0 1-7.412336-7.412337v-15.075939a7.53797 7.53797 0 0 0-7.412337-7.412337h-15.075939a7.53797 7.53797 0 0 1-7.412337-7.412336v-19.196696a7.53797 7.53797 0 0 1 7.412337-7.412337h15.075939a7.53797 7.53797 0 0 0 7.412337-7.412337v-15.075939a7.713856 7.713856 0 0 1 7.537969-7.412337h19.146443a7.53797 7.53797 0 0 1 7.412337 7.412337v15.075939a7.31183 7.31183 0 0 0 7.412337 7.412337h15.075939a7.31183 7.31183 0 0 1 7.412336 7.412337v19.322328a7.53797 7.53797 0 0 1-7.412336 7.412337h-15.075939a7.53797 7.53797 0 0 0-7.412337 7.412337v15.075939a7.53797 7.53797 0 0 1-7.412337 7.412337z" /></svg>