<?xml version="1.0" standalone="no"?><!DOCTYPE svg PUBLIC "-//W3C//DTD SVG 1.1//EN" "http://www.w3.org/Graphics/SVG/1.1/DTD/svg11.dtd"><svg class="icon" width="260px" height="188.16px" viewBox="0 0 1415 1024" version="1.1" xmlns="http://www.w3.org/2000/svg"><path fill="#BFCBD9" d="M1400.289042 931.008366l-139.509044-139.651255a190.547011 190.547011 0 0 0-235.4383-268.952705l49.457844 49.505248a77.805248 77.805248 0 0 1-109.992349 110.087156l-49.457844-49.505247A190.610216 190.610216 0 0 0 1093.207973 891.189271a186.075263 186.075263 0 0 0 90.793857-22.911781l139.524846 139.651255a53.866387 53.866387 0 0 0 76.762366 0 55.304299 55.304299 0 0 0 0-76.920379zM1360.485748 997.499934a25.866611 25.866611 0 1 1 25.835008-25.850809A25.281965 25.281965 0 0 1 1360.485748 997.499934zM802.386368 718.197424c0-164.03255 132.856727-297.06309 296.731265-297.06309A296.051812 296.051812 0 0 1 1281.479607 483.975819V118.224789A118.509212 118.509212 0 0 0 1163.333824 0H118.09838A118.509212 118.509212 0 0 0 0 118.224789v778.795135a118.509212 118.509212 0 0 0 118.09838 118.224789h980.276595c-163.13188 0-295.988607-133.014739-295.988607-297.06309zM132.12987 214.280456h341.764765V284.422108H132.12987z m0 223.144944h449.544943v70.189056H132.12987z m607.509821 294.076658H132.12987v-70.189055h607.509821z" /></svg>