<?xml version="1.0" standalone="no"?><!DOCTYPE svg PUBLIC "-//W3C//DTD SVG 1.1//EN" "http://www.w3.org/Graphics/SVG/1.1/DTD/svg11.dtd"><svg class="icon" width="260px" height="260.00px" viewBox="0 0 1024 1024" version="1.1" xmlns="http://www.w3.org/2000/svg"><path fill="#BFCBD9" d="M961.92 366.4l-304.32-304.32A205.312 205.312 0 0 0 512 1.92c-55.04 0-106.56 21.44-145.6 60.16l-304.32 304.32a206.08 206.08 0 0 0 0 291.2l304.32 304.32A204.768 204.768 0 0 0 512 1022.08c55.04 0 106.88-21.44 145.6-60.16l304.32-304.32c80-80.32 80-210.88 0-291.2z m-225.6 212.16c0 5.12-1.92 9.92-5.76 13.76s-8.64 5.76-13.76 5.76h-119.36v119.36c0 10.88-8.64 19.52-19.52 19.52h-131.52c-5.12 0-9.92-1.92-13.76-5.76a20.512 20.512 0 0 1-5.76-13.76v-119.36H307.52c-5.12 0-9.92-1.92-13.76-5.76a19.136 19.136 0 0 1-5.76-13.76v-131.52c0-5.12 1.92-9.92 5.76-13.76s8.64-5.76 13.76-5.76h119.36V308.16c0-5.12 1.92-9.92 5.76-13.76s8.64-5.76 13.76-5.76h131.52c5.12 0 9.92 1.92 13.76 5.76s5.76 8.64 5.76 13.76v119.36h119.36c5.12 0 9.92 1.92 13.76 5.76s5.76 8.64 5.76 13.76v131.52z" /></svg>