<?xml version="1.0" standalone="no"?><!DOCTYPE svg PUBLIC "-//W3C//DTD SVG 1.1//EN" "http://www.w3.org/Graphics/SVG/1.1/DTD/svg11.dtd"><svg class="icon" width="200px" height="200.00px" viewBox="0 0 1024 1024" version="1.1" xmlns="http://www.w3.org/2000/svg"><path fill="#BFCBD9" d="M775.334547 65.680908 248.665453 65.680908c-89.128947 0-162.051793 72.92387-162.051793 162.051793l0 567.181787c0 89.128947 72.922846 162.051793 162.051793 162.051793l526.669094 0c89.128947 0 162.051793-72.922846 162.051793-162.051793L937.38634 227.733725C937.38634 138.605801 864.463494 65.680908 775.334547 65.680908zM755.321748 727.331253 356.531136 727.331253c-11.186783 0-20.256346-9.060353-20.256346-20.256346s9.069563-20.256346 20.256346-20.256346l398.789589 0c11.186783 0 20.256346 9.060353 20.256346 20.256346S766.508531 727.331253 755.321748 727.331253zM755.321748 534.300912 462.878233 534.300912c-11.186783 0-20.256346-9.060353-20.256346-20.256346s9.069563-20.256346 20.256346-20.256346l292.443515 0c11.186783 0 20.256346 9.060353 20.256346 20.256346S766.508531 534.300912 755.321748 534.300912zM755.321748 341.270571 268.671089 341.270571c-11.186783 0-20.256346-9.060353-20.256346-20.256346s9.069563-20.256346 20.256346-20.256346l486.650659 0c11.186783 0 20.256346 9.060353 20.256346 20.256346S766.508531 341.270571 755.321748 341.270571z" /></svg>