<?xml version="1.0" standalone="no"?><!DOCTYPE svg PUBLIC "-//W3C//DTD SVG 1.1//EN" "http://www.w3.org/Graphics/SVG/1.1/DTD/svg11.dtd"><svg class="icon" width="260px" height="260.00px" viewBox="0 0 1024 1024" version="1.1" xmlns="http://www.w3.org/2000/svg"><path fill="#BFCBD9" d="M495.4765625 110.955078125c0-20.56640625-16.69921875-37.177734375-37.177734375-37.177734375H109.197265625c-20.56640625 0-37.177734375 16.69921875-37.177734375 37.177734375V459.96875c0 20.56640625 16.69921875 37.177734375 37.177734375 37.177734375h386.279296875v-386.19140625zM495.4765625 538.54296875H109.197265625c-20.56640625 0-37.177734375 16.69921875-37.177734375 37.177734375v349.1015625c0 20.56640625 16.69921875 37.177734375 37.177734375 37.177734375h349.1015625c20.56640625 0 37.177734375-16.69921875 37.177734375-37.177734375V538.54296875zM960.2421875 575.720703125c0-20.56640625-16.69921875-37.177734375-37.177734375-37.177734375H536.78515625v386.279296875c0 20.56640625 16.69921875 37.177734375 37.177734375 37.177734375h349.1015625c20.56640625 0 37.177734375-16.611328125 37.177734375-37.177734375V575.720703125z"  /><path fill="#BFCBD9" d="M748.513671875 285.41796875m-211.728515625 0a211.728515625 211.728515625 0 1 0 423.45703125 0 211.728515625 211.728515625 0 1 0-423.45703125 0Z"  /></svg>