<?xml version="1.0" standalone="no"?><!DOCTYPE svg PUBLIC "-//W3C//DTD SVG 1.1//EN" "http://www.w3.org/Graphics/SVG/1.1/DTD/svg11.dtd"><svg class="icon" width="260px" height="222.98px" viewBox="0 0 1194 1024" version="1.1" xmlns="http://www.w3.org/2000/svg"><path fill="#BFCBD9" d="M1187.157333 958.037333a31.573333 31.573333 0 0 1-30.890666 32H31.061333a31.573333 31.573333 0 0 1-30.890666-32V554.581333a31.573333 31.573333 0 0 1 30.890666-32h265.813334s34.645333-1.536 52.565333 9.557334c17.92 11.178667 67.072 118.613333 98.133333 118.613333h294.4c28.672 0 79.701333-100.181333 92.501334-114.944 14.506667-16.64 55.893333-13.226667 55.893333-13.226667h265.898667c17.066667 0 30.890667 14.336 30.890666 32v403.456zM7.850667 565.76v-32.256L341.674667 1.194667h499.541333l339.797333 534.186666-59.392 76.970667L791.210667 67.242667H394.581333L65.194667 625.066667M845.653333 284.416c0 12.202667-12.629333 22.101333-28.245333 22.101333H373.930667c-15.616 0-28.330667-9.898667-28.330667-22.186666V271.36c0-12.202667 12.714667-22.101333 28.330667-22.101333H817.493333c15.616 0 28.330667 9.898667 28.330667 22.186666v12.970667z m-65.109333-116.053333a21.333333 21.333333 0 0 1-20.992 21.674666H431.786667a21.333333 21.333333 0 0 1-20.992-21.76v-12.8c0-11.946667 9.386667-21.76 20.992-21.76H759.466667a21.333333 21.333333 0 0 1 20.992 21.76v12.8z m129.877333 253.44c0 15.36-15.957333 27.818667-35.669333 27.818666H316.586667c-19.797333 0-35.754667-12.458667-35.754667-27.818666V405.333333c0-15.36 15.957333-27.818667 35.669333-27.818666h558.08c19.797333 0 35.754667 12.458667 35.754667 27.818666v16.384z" /></svg>