<?xml version="1.0" standalone="no"?><!DOCTYPE svg PUBLIC "-//W3C//DTD SVG 1.1//EN" "http://www.w3.org/Graphics/SVG/1.1/DTD/svg11.dtd"><svg class="icon" width="260px" height="258.99px" viewBox="0 0 1028 1024" version="1.1" xmlns="http://www.w3.org/2000/svg"><path fill="#BFCBD9" d="M1020.587 650.24c1.706 8.533 1.706 18.773-1.707 32.427-1.707 11.946-5.12 25.6-10.24 37.546-5.12 11.947-11.947 23.894-18.773 34.134-6.827 10.24-15.36 17.066-23.894 22.186-8.533 5.12-17.066 6.827-22.186 6.827-6.827 0-13.654-1.707-22.187-5.12-6.827-1.707-17.067-3.413-27.307-6.827-10.24-1.706-22.186-1.706-34.133-1.706-11.947 1.706-22.187 3.413-34.133 6.826s-20.48 10.24-29.014 18.774c-17.066 18.773-27.306 39.253-30.72 63.146-3.413 23.894 0 46.08 10.24 66.56 6.827 15.36 6.827 29.014-3.413 44.374-5.12 5.12-11.947 11.946-20.48 18.773-10.24 6.827-20.48 11.947-30.72 17.067-11.947 5.12-23.893 8.533-35.84 11.946-11.947 3.414-23.893 5.12-32.427 5.12-6.826 0-11.946-1.706-18.773-6.826-5.12-5.12-10.24-10.24-11.947-17.067h-1.706c-8.534-22.187-22.187-42.667-40.96-58.027C561.493 923.307 537.6 916.48 512 916.48s-47.787 8.533-68.267 23.893c-20.48 17.067-34.133 35.84-42.666 58.027-3.414 8.533-8.534 15.36-17.067 18.773-6.827 3.414-15.36 6.827-23.893 6.827-10.24 0-22.187-1.707-34.134-5.12-13.653-3.413-25.6-8.533-39.253-13.653-11.947-5.12-23.893-11.947-34.133-18.774-10.24-6.826-17.067-15.36-22.187-22.186-3.413-5.12-5.12-11.947-6.827-18.774 0-6.826 1.707-17.066 8.534-29.013 8.533-17.067 11.946-35.84 8.533-58.027-1.707-22.186-11.947-40.96-27.307-59.733-10.24-10.24-22.186-18.773-37.546-22.187-15.36-3.413-29.014-5.12-40.96-3.413-15.36 0-30.72 3.413-47.787 8.533-10.24 3.414-20.48 1.707-30.72-1.706-6.827-5.12-15.36-11.947-22.187-22.187-6.826-10.24-13.653-22.187-18.773-35.84-5.12-11.947-10.24-25.6-11.947-39.253C0 669.013 0 658.773 1.707 648.533c1.706-15.36 10.24-25.6 22.186-30.72 22.187-8.533 40.96-23.893 59.734-42.666 17.066-20.48 25.6-42.667 25.6-68.267s-8.534-47.787-25.6-66.56-37.547-32.427-59.734-40.96c-6.826-1.707-11.946-6.827-17.066-15.36C1.707 375.467 0 366.933 0 358.4c0-10.24 1.707-20.48 5.12-32.427 3.413-11.946 6.827-23.893 11.947-34.133 5.12-10.24 10.24-20.48 17.066-30.72 6.827-8.533 13.654-15.36 20.48-20.48 5.12-3.413 11.947-5.12 17.067-5.12 5.12 0 11.947 1.707 18.773 5.12 22.187 8.533 44.374 11.947 68.267 8.533 23.893-3.413 44.373-13.653 63.147-30.72 8.533-8.533 15.36-18.773 18.773-32.426 3.413-11.947 6.827-25.6 6.827-37.547 1.706-11.947 1.706-23.893 0-34.133-1.707-10.24-1.707-17.067-3.414-22.187-1.706-5.12-3.413-10.24-3.413-15.36-1.707-5.12 0-10.24 1.707-15.36 3.413-10.24 11.946-18.773 22.186-27.307 11.947-6.826 23.894-13.653 37.547-18.773 13.653-5.12 25.6-8.533 39.253-11.947C353.28 1.707 361.813 0 370.347 0c10.24 0 17.066 3.413 22.186 8.533 5.12 6.827 8.534 11.947 11.947 18.774 8.533 20.48 20.48 37.546 39.253 52.906 18.774 15.36 39.254 22.187 64.854 22.187s47.786-6.827 68.266-22.187c20.48-13.653 34.134-32.426 40.96-54.613 3.414-5.12 6.827-11.947 13.654-18.773C638.293 3.413 643.413 0 650.24 0c10.24 0 22.187 1.707 34.133 5.12 11.947 3.413 23.894 6.827 35.84 11.947 11.947 5.12 22.187 11.946 32.427 20.48 10.24 8.533 17.067 17.066 23.893 25.6 3.414 5.12 5.12 11.946 3.414 18.773-1.707 6.827-3.414 11.947-5.12 15.36-10.24 20.48-11.947 44.373-8.534 66.56 3.414 23.893 13.654 44.373 32.427 61.44 17.067 17.067 39.253 27.307 64.853 29.013 25.6 1.707 49.494-1.706 71.68-11.946 5.12-3.414 13.654-5.12 22.187-5.12s15.36 3.413 22.187 10.24c10.24 10.24 20.48 25.6 29.013 46.08 8.533 20.48 13.653 42.666 17.067 63.146 1.706 11.947 0 22.187-6.827 29.014-5.12 6.826-11.947 11.946-17.067 13.653-22.186 8.533-42.666 22.187-58.026 42.667-15.36 20.48-23.894 42.666-23.894 68.266s6.827 46.08 20.48 64.854c13.654 18.773 30.72 32.426 52.907 39.253 5.12 3.413 10.24 5.12 13.653 8.533 5.12 8.534 10.24 17.067 13.654 27.307z m-510.294 97.28c32.427 0 63.147-6.827 93.867-18.773s54.613-29.014 76.8-51.2c22.187-22.187 39.253-47.787 51.2-76.8 11.947-29.014 18.773-59.734 18.773-92.16 0-32.427-6.826-63.147-18.773-92.16-11.947-29.014-29.013-54.614-51.2-75.094-22.187-22.186-47.787-39.253-76.8-51.2-29.013-11.946-59.733-18.773-93.867-18.773-32.426 0-63.146 6.827-92.16 18.773-29.013 11.947-54.613 29.014-75.093 51.2-22.187 22.187-39.253 46.08-51.2 75.094-11.947 29.013-18.773 59.733-18.773 92.16 0 32.426 6.826 63.146 18.773 92.16 11.947 29.013 29.013 54.613 51.2 76.8 22.187 22.186 46.08 39.253 75.093 51.2 29.014 13.653 59.734 18.773 92.16 18.773zM445.44 510.293a66.56 66.56 0 1 0 133.12 0 66.56 66.56 0 1 0-133.12 0z" /></svg>